<svg id="图层_1" data-name="图层 1" xmlns="http://www.w3.org/2000/svg" viewBox="0 0 22 22"><defs><style>.cls-1-15413699a24{opacity:.17}.cls-2-15413699a24{fill:none;stroke:#000;stroke-miterlimit:10}.cls-3-15413699a24{fill:#fff;fill-rule:evenodd}</style></defs><title>全屏</title><path class="cls-1-15413699a24 cls-2-15413699a24" d="M1044.76 322.27v-4.59l-5 5-1.41-1.41 5-5h-4.59v-2h8v8h-2zm-11 11v2h-8v-8h2v4.59l5-5 1.41 1.41-5 5h4.59z" transform="translate(-1025.26 -313.77)"/><path class="cls-3-15413699a24" d="M1044.76 322.27v-4.59l-5 5-1.41-1.41 5-5h-4.59v-2h8v8h-2zm-11 11v2h-8v-8h2v4.59l5-5 1.41 1.41-5 5h4.59z" transform="translate(-1025.26 -313.77)"/></svg>