<svg id="TU" xmlns="http://www.w3.org/2000/svg" viewBox="0 0 159.11 78.07"><defs><style>.cls-1-154136cf52a{fill:#fff}</style></defs><title>Vector Smart Object</title><path class="cls-1-154136cf52a" d="M0 .33h33.44v9H21.93v67.22H11.85V9.33H0v-9z"/><path class="cls-1-154136cf52a" d="M40.16 1h10.07v53.88q0 8.25 1.48 11t6 2.71q4.5 0 5.93-2.37t1.48-9.82V1H75.2v55.35q0 12.43-3.81 16.84-4.54 5-13.88 5-10.28 0-14.47-6.42-2.91-4.41-2.91-16.88V1zM159.1 41.31q0 20-4.49 28.45t-15.06 8.43q-11.12 0-15.66-9.05-4.5-8.87-4.5-31.49 0-20.17 4.45-28.55T139 .69q9.58 0 14.23 6.51 3.06 4.36 4.45 12.38 1.38 7.45 1.38 21.74m-10.72 1.08q0-19.64-1.78-26.05T139.3 9.9q-5.49 0-7.32 5.95t-1.78 24q0 16.6 1.88 23 1.93 6.07 7.22 6.07t7.11-5.68q1.92-5.63 1.93-20.82M109.67 3.66v9.94q-4.7-3.33-8.45-3.33a8.5 8.5 0 0 0-6.61 2.85 10 10 0 0 0-2.61 7.2 12.33 12.33 0 0 0 1.83 6.83 28.84 28.84 0 0 0 3.08 3.92q2.15 2.41 5.55 5.8 6.31 6.33 8.54 10.93a23.89 23.89 0 0 1 2.28 10.93q0 8.78-5 14.48a16.45 16.45 0 0 1-12.8 5.54 17.79 17.79 0 0 1-11.21-3.59V65.09q5.49 4 10 4a8.19 8.19 0 0 0 6.57-2.77 11.22 11.22 0 0 0 2.37-7.53 15 15 0 0 0-1.83-7.41 31.27 31.27 0 0 0-2.61-3.61q-1.68-2-4.2-4.53-3.91-3.83-6.47-6.78a31.71 31.71 0 0 1-3.81-5.16A22.43 22.43 0 0 1 82 20.35q0-8.88 4.65-14.08T99.21 1a22.36 22.36 0 0 1 10.47 2.6" transform="translate(0 -.69)"/></svg>