<svg id="upload" xmlns="http://www.w3.org/2000/svg" viewBox="0 0 51.47 42.75"><defs><style>.cls-1{fill:none;stroke:#fff;stroke-miterlimit:10;stroke-width:1.5px;}</style></defs><title>upload</title><line id="upload_" data-name="date" class="cls-1" x1="27.18" y1="14.49" x2="27.18" y2="42.75"/><polyline id="_路径_2" data-name="&lt;路径&gt;" class="cls-1" points="19.73 20.86 27.18 14.49 34.68 20.84"/><path id="_路径_3" data-name="&lt;路径&gt;" class="cls-1" d="M128.54-128.33l-17.73,0a4.69,4.69,0,0,1-3.73-2.23,5.63,5.63,0,0,1-.28-6.25,5.81,5.81,0,0,1,8.11-1.82c0.15,0.1.32,0.17,0.64,0.34a8.11,8.11,0,0,1,2.94-7.64,8.41,8.41,0,0,1,7.88-1.42,9.44,9.44,0,0,1,3.59-6.12,9.67,9.67,0,0,1,7.39-2.05,8.9,8.9,0,0,1,4.82,2.06,10.25,10.25,0,0,1,3.1,4.27,11.83,11.83,0,0,1,.47,5.42A9.5,9.5,0,0,1,147-144a8.73,8.73,0,0,1,5.91,1.75,7.56,7.56,0,0,1,2.81,7.83,8.46,8.46,0,0,1-4.1,5.68,2.84,2.84,0,0,1-1.43.41l-14.08,0" transform="translate(-105.23 156.36)"/></svg>
