<svg id="图层_1" data-name="图层 1" xmlns="http://www.w3.org/2000/svg" viewBox="0 0 280 180"><defs><style>.cls-1{fill:#ff1010;}</style></defs><title>point</title><path class="cls-1" d="M105.35,29.18s-1.71,5.33-4.41,13.26c-1.34,4-2.88,8.61-4.61,13.56-0.86,2.47-1.72,5-2.66,7.62l-1.39,3.91-0.7,2-0.35,1-0.4,1c-1,2.58-1.9,5.2-2.73,7.79s-1.62,5.15-2.49,7.58S83.85,91.65,83,93.83L80.47,100c-0.76,1.9-1.45,3.64-2,5.19s-1,2.91-1.34,4a14.48,14.48,0,0,0-.51,2.64,5.55,5.55,0,0,0,0,.95l-0.65.27a4.5,4.5,0,0,1-.57-1,10.84,10.84,0,0,1-.81-3,26.13,26.13,0,0,1-.2-4.69A46.85,46.85,0,0,1,75,98.47c0.35-2.13.83-4.41,1.46-6.78a67.37,67.37,0,0,1,2.33-7.3c0.94-2.48,2.11-5,3.31-7.47l3.66-7.58,0.43-.88,0.43-1,0.86-1.9,1.71-3.78c1.12-2.51,2.28-5,3.38-7.33,2.19-4.76,4.3-9.17,6.09-13,3.57-7.58,6-12.6,6-12.6Z"/><path class="cls-1" d="M141.89,20.15l-4.4,9.92-5,11.34c-1.87,4.39-4,9.31-6.12,14.76S122.09,67.51,120,73.8s-4.19,12.94-5,20a34.27,34.27,0,0,0-.18,5.36,24.48,24.48,0,0,0,.77,5.33,15.77,15.77,0,0,0,5.85,8.86c0.35,0.29.76,0.5,1.14,0.76a4.88,4.88,0,0,0,1.11.59,7.28,7.28,0,0,0,2.49.45,10.56,10.56,0,0,0,5-1.45,19.37,19.37,0,0,0,4.26-3.45,27.53,27.53,0,0,0,1.82-2.14l1.81-2.32c2.38-3.11,4.7-6.27,6.95-9.46s4.48-6.34,6.64-9.49,4.19-6.33,6-9.52c0.9-1.59,1.73-3.19,2.46-4.77a26.74,26.74,0,0,0,1.71-4.6,8.28,8.28,0,0,0,.28-1.9,1.45,1.45,0,0,0-.1-0.72c0,0.08.2,0.18,0,.07a4.62,4.62,0,0,0-1.37-.15,19,19,0,0,0-4.29.65c-1.52.37-3.06,0.84-4.58,1.36s-3.08,1.09-4.47,1.64-3,1.25-4.5,1.83c-3,1.15-5.72,2.37-8.4,3.51s-5.21,2.31-7.6,3.44-4.66,2.24-6.71,3.38c-1,.55-2.06,1.08-3,1.65s-1.88,1.06-2.75,1.59l-2.46,1.57c-0.78.51-1.48,1-2.18,1.51a31.77,31.77,0,0,0-5.77,5.16,7.66,7.66,0,0,0-1.42,2.22l-0.69-.09a2,2,0,0,1,0-.22,4.66,4.66,0,0,1,.13-0.58,10.36,10.36,0,0,1,.84-2.06,28.77,28.77,0,0,1,5-6.57,67,67,0,0,1,9.81-8.13,133.9,133.9,0,0,1,14-8.54c2.68-1.37,5.49-2.86,8.35-4.19,1.43-.69,2.91-1.36,4.4-2.06s3.17-1.39,4.85-2,3.39-1.21,5.24-1.69a26,26,0,0,1,6.11-.9,11.35,11.35,0,0,1,3.91.62,7.89,7.89,0,0,1,2.24,1.24,7.11,7.11,0,0,1,1.81,2.17,8.56,8.56,0,0,1,.92,4.58,15.52,15.52,0,0,1-.64,3.52,45.81,45.81,0,0,1-5.36,10.93c-2.11,3.33-4.39,6.53-6.8,9.65A199.16,199.16,0,0,1,142,108.31l-2.08,2.12c-0.71.74-1.49,1.44-2.26,2.13a23.1,23.1,0,0,1-5.22,3.49,13,13,0,0,1-6.26,1.39,9.63,9.63,0,0,1-3.22-.66,6.89,6.89,0,0,1-1.45-.79c-0.42-.3-0.87-0.54-1.27-0.88a20.56,20.56,0,0,1-7-9.83,38.9,38.9,0,0,1-2-11.56A73.73,73.73,0,0,1,114.12,72a128.5,128.5,0,0,1,6.8-18.17c2.52-5.43,5-10.31,7.43-14.51,1.18-2.12,2.35-4.06,3.46-5.84s2.12-3.41,3.1-4.85c3.84-5.79,6.4-8.86,6.4-8.86Z"/><path class="cls-1" d="M45.15,162.92L43.06,164c-1.35.73-3.37,1.79-5.85,3.19l-0.45.27-0.19.13,0,0,0,0c0-.1,0,0.12.18-0.4a0.66,0.66,0,0,0-.61-0.68H36.06c0.27-.09.66-0.25,1-0.39l2.28-1,5.15-2.25,12.36-5.39,14.68-6.26c5.22-2.2,10.76-4.43,16.5-6.73,11.48-4.58,23.79-9.32,36.19-13.84,6.19-2.29,12.41-4.49,18.54-6.68S155,119.8,160.89,118s11.7-3.4,17.22-4.75l8-2,7.56-1.65c4.85-1,9.33-1.84,13.3-2.53s7.46-1.18,10.33-1.55,5.14-.63,6.68-0.77l2.37-.22,0.14,0.69s-3.15,1-8.65,2.76L195.12,115l-15.18,4.7c-5.37,1.71-11.06,3.43-16.94,5.21l-18.2,5.31c-6.21,1.8-12.47,3.76-18.74,5.74-12.51,4-25,8.23-36.58,12.35l-16.73,6-15,5.49L45.19,164.6l-5.26,2-2.36.85c-0.39.13-.73,0.26-1.19,0.38l-0.13,0H36.1a0.68,0.68,0,0,1-.66-0.7,0.57,0.57,0,0,1,.22-0.45l0.08-.07,0.09-.07,0.28-.16,0.5-.26c2.61-1.28,4.67-2.2,6.07-2.86l2.15-1Z"/></svg>