<svg id="图层_1" data-name="图层 1" xmlns="http://www.w3.org/2000/svg" viewBox="0 0 280 180"><defs><style>.cls-1{fill:#ff1010;}</style></defs><title>point</title><path class="cls-1" d="M83.71,45.91s0.83-.35,2.42-0.93,3.93-1.35,7-2.16c1.52-.42,3.22-0.82,5.09-1.2s3.91-.75,6.14-1a45.76,45.76,0,0,1,7.24-.31,25.21,25.21,0,0,1,4.13.49,13.79,13.79,0,0,1,4.57,1.75,8.23,8.23,0,0,1,3.7,5,10.68,10.68,0,0,1-.38,5.85,27.26,27.26,0,0,1-5,8.53,61.9,61.9,0,0,1-6.8,7l-0.57.52-0.48.37-1,.74-2,1.46q-2,1.46-4.07,2.9c-2.74,1.94-5.56,3.85-8.4,5.81l-8.61,5.92c-1.49.94-2.92,2-4.45,2.9L80,90.9l-2.34,1.35c-0.76.48-1.59,0.87-2.39,1.3L74,94.19c-0.41.21-.85,0.37-1.27,0.56-0.86.36-1.68,0.78-2.62,1.08a7.67,7.67,0,0,1-.8.23,2.86,2.86,0,0,1-.74.07A1.93,1.93,0,0,1,68,96a1.91,1.91,0,0,1-1.22-1.56,1.94,1.94,0,0,1,.29-1.24,2.14,2.14,0,0,1,.26-0.34,4.1,4.1,0,0,1,.51-0.47l0.35-.27,0.63-.43a96.11,96.11,0,0,1,9.63-5.19q2.45-1.14,4.93-2.18c1.66-.68,3.33-1.31,5-1.92a97.46,97.46,0,0,1,10.27-3.07A43.65,43.65,0,0,1,109.56,78a16.28,16.28,0,0,1,6.18,1.23,10,10,0,0,1,3.17,2.18A8.86,8.86,0,0,1,121,84.9a12.82,12.82,0,0,1,.09,6.63,26.87,26.87,0,0,1-1.78,5.07c-0.17.39-.36,0.76-0.54,1.13l-0.28.55-0.14.27-0.19.34L117,100.82l-2.19,3.79-2.44,3.69-1.19,1.79L110,111.77a63.57,63.57,0,0,1-10.31,11,36.77,36.77,0,0,1-9.95,6.15,23.11,23.11,0,0,1-7.3,1.78,14.13,14.13,0,0,1-2,0c-0.45,0-.7-0.09-0.7-0.09l0.07-.7s0.19,0,.61-0.07a13.1,13.1,0,0,0,1.79-.43,24.9,24.9,0,0,0,6.24-3c0.61-.43,1.28-0.82,1.93-1.34l2-1.59,2-1.9c0.71-.65,1.37-1.42,2.09-2.16A28.24,28.24,0,0,0,98.6,117c0.68-.87,1.45-1.69,2.11-2.67l2.1-2.91,2-3.19,1-1.63,1-1.72,2-3.52,2-3.92,1-2,0.4-.87,0.41-.94a19.56,19.56,0,0,0,1.19-3.7,5.78,5.78,0,0,0,.06-2.76,1.7,1.7,0,0,0-.34-0.61,2.54,2.54,0,0,0-.82-0.56,10.18,10.18,0,0,0-3.45-.76A39.77,39.77,0,0,0,100,86c-3.22.57-6.48,1.39-9.76,2.31-1.64.46-3.28,1-4.93,1.48s-3.3,1-4.95,1.59A94.41,94.41,0,0,0,70.7,95l-0.51.26-0.2.11s-0.1.07,0,0a1.9,1.9,0,0,0,.15-0.21A1.73,1.73,0,0,0,70.38,94a1.78,1.78,0,0,0-1.11-1.45,1.28,1.28,0,0,0-.45-0.09,0.32,0.32,0,1,0-.08,0,3.89,3.89,0,0,0,.49-0.07c0.79-.14,1.6-0.43,2.41-0.65,0.4-.13.81-0.23,1.21-0.38l1.2-.48c0.8-.33,1.61-0.61,2.39-1a74,74,0,0,0,9.06-5.12A111.37,111.37,0,0,0,101.32,72c1.2-1.14,2.37-2.29,3.52-3.44l1.71-1.71,0.83-.85,0.42-.43s-0.18.17-.06,0.05l0-.06,0.1-.11,0.19-.22c2-2.38,3.94-4.76,5.65-7.07a29.09,29.09,0,0,0,3.92-6.73,5,5,0,0,0,.35-2.47,1.58,1.58,0,0,0-.29-0.72,2.56,2.56,0,0,0-.72-0.7,8.4,8.4,0,0,0-2.63-1.17,24.12,24.12,0,0,0-3.24-.65,53.57,53.57,0,0,0-6.52-.39c-2.09,0-4.08,0-5.92.12s-3.54.22-5.08,0.31c-3.07.23-5.51,0.45-7.17,0.61l-2.55.23Z"/><path class="cls-1" d="M144.14,60.83s0.5-.49,1.53-1.29a28.81,28.81,0,0,1,4.82-3,21.32,21.32,0,0,1,3.9-1.52,15.94,15.94,0,0,1,5.18-.7,11.41,11.41,0,0,1,6.2,2.07,13.24,13.24,0,0,1,4.4,5.71A23.23,23.23,0,0,1,171.84,69a33.26,33.26,0,0,1,.19,3.58q0,1.8-.18,3.62L171.64,78l-0.13.91-0.08.56-0.1.48a34.06,34.06,0,0,1-1.18,3.77,47.83,47.83,0,0,1-3.44,7A76.16,76.16,0,0,1,157,103.48,70,70,0,0,1,144.34,114l-3.62,2.15c-1.2.65-2.4,1.29-3.68,1.91-0.33.15-.66,0.3-1.07,0.46l-0.39.13-0.12,0-0.2,0a2.91,2.91,0,0,1-1.31,0c-0.33,1-2.78-2.89-1.91-3.48a2.66,2.66,0,0,1,.61-1.06,3.75,3.75,0,0,1,.41-0.4l0.37-.29c0.74-.54,1.27-0.88,1.88-1.27,1.18-.73,2.35-1.4,3.51-2.08,4.67-2.64,9.3-5.09,13.82-7.39s9-4.37,13.26-6.16,8.42-3.33,12.26-4.71,7.42-2.48,10.63-3.35c1.6-.46,3.12-0.83,4.53-1.15s2.71-.6,3.91-0.8a32.79,32.79,0,0,1,5.62-.57,9.43,9.43,0,0,1,2,.2l0,0.7a8.46,8.46,0,0,0-1.81.42,49.21,49.21,0,0,0-5,2l-3.52,1.6-4.12,2-9.83,4.81-11.66,5.66c-4.15,2-8.55,4-13.16,6s-9.35,4.12-14.11,6.32l-3.54,1.65c-0.56.26-1.2,0.56-1.58,0.76,0,0-.07,0,0,0l0.23-.23a2.65,2.65,0,0,0,.54-1c0.85-.55-1.57-4.42-1.85-3.4a1.93,1.93,0,0,0-.86-0.09l-0.33,0-0.21,0h0a1.13,1.13,0,0,0,.22,0c0.22,0,.59-0.13.88-0.22,1.21-.35,2.53-0.76,3.79-1.18l3.66-1.38A37.9,37.9,0,0,0,155.49,102,25.62,25.62,0,0,0,158,99.11l1.15-1.53c0.36-.53.67-1.08,1-1.62s0.66-1.08.95-1.63,0.54-1.13.81-1.7a36.39,36.39,0,0,0,1.4-3.42,50.27,50.27,0,0,0,1.8-6.87l0.28-1.67c0.07-.54.15-1.12,0.18-1.57l0-.4V78.63a0.27,0.27,0,1,1,0,.05V78.37l0-.84,0.06-1.67q0-1.63,0-3.22c0-1,0-2.08-.13-3a20.49,20.49,0,0,0-1-5.33c-1-3.14-2.94-4.76-5.58-5.3a14.67,14.67,0,0,0-4-.2,28.89,28.89,0,0,0-3.61.55,47.45,47.45,0,0,0-5.14,1.46c-1.19.4-1.82,0.65-1.82,0.65Z"/><path class="cls-1" d="M32.49,164.25l-2.26,1.08-0.57.28-0.13.07,0,0c0.2,0.1-.06-1.26-0.34-0.77h0l0.05,0,0.33-.13,1.51-.63,3.76-1.58c5.63-2.39,13.7-5.7,23.44-9.57,4.87-1.94,10.16-4,15.76-6.16s11.55-4.33,17.71-6.57c12.33-4.46,25.55-9,38.87-13.31,6.65-2.17,13.34-4.24,19.94-6.27s13.12-3.9,19.5-5.53,12.59-3,18.52-4.09q4.45-.84,8.65-1.57t8.13-1.23c5.22-.75,10-1.26,14.29-1.64s8-.58,11.07-0.68,5.49-.12,7.14-0.1l2.53,0,0.06,0.7L231,108.4c-3,.61-6.62,1.34-10.76,2.24s-8.8,1.94-13.88,3.1q-3.81.87-7.9,1.88t-8.45,2l-18.2,4.55L152.32,127c-6.65,1.64-13.36,3.46-20.07,5.32-13.4,3.77-26.74,7.81-39.18,11.79-6.23,2-12.22,4-17.91,5.85s-11.06,3.69-16,5.38c-9.9,3.38-18.1,6.35-23.86,8.39l-3.84,1.37-1.56.55-0.37.12-0.12,0H29.34c-0.31.49-.56-0.88-0.35-0.79l0.1-.07,0.18-.09,0.61-.26,2.32-1Z"/></svg>