<svg id="图层_1" data-name="图层 1" xmlns="http://www.w3.org/2000/svg" viewBox="0 0 280 180"><defs><style>.cls-1{fill:#ff1010;}</style></defs><title>point</title><path class="cls-1" d="M90.5,46.37S89.92,48.12,89,51.22s-2.11,7.55-3.24,12.93c-0.57,2.69-1.1,5.62-1.53,8.72a79.77,79.77,0,0,0-.8,9.71,30.8,30.8,0,0,0,1.23,9.78,13.14,13.14,0,0,0,.91,2.09,9.11,9.11,0,0,0,1.24,1.67,7,7,0,0,0,1.55,1.15,7.41,7.41,0,0,0,1.86.63,11.86,11.86,0,0,0,4.43-.13,11.56,11.56,0,0,0,1.17-.27c0.39-.1.78-0.2,1.17-0.34L97.63,97l0.25-.08,0.32-.12,1.29-.46c1.7-.62,3.45-1.22,5.06-1.84s3.22-1.19,4.79-1.79,3.13-1.2,4.67-1.72,3-1.16,4.46-1.69l4.19-1.67L126.55,86c2.47-1.1,4.74-2.12,6.71-3.11,1-.47,1.92-1,2.76-1.41s1.62-.87,2.32-1.26c1.39-.79,2.47-1.44,3.19-1.91s1.09-.73,1.09-0.73L143.16,78a11.74,11.74,0,0,1-.77,1.16,29.93,29.93,0,0,1-2.48,3,47,47,0,0,1-4.4,4.12,63.46,63.46,0,0,1-6.28,4.63c-1.19.8-2.48,1.52-3.79,2.33s-2.74,1.5-4.19,2.25-3,1.42-4.54,2.13-3.21,1.28-4.85,1.93-3.42,1.14-5.18,1.66-3.49.92-5.26,1.38l-1.33.33-0.33.08-0.41.1-0.74.16c-0.49.11-1,.2-1.51,0.28s-1,.16-1.55.2a18.42,18.42,0,0,1-6.57-.39A12.85,12.85,0,0,1,85.69,102,12.27,12.27,0,0,1,83,99.64a14.25,14.25,0,0,1-1.85-2.86,18.12,18.12,0,0,1-1.09-3,33.22,33.22,0,0,1-.65-11.4,94.35,94.35,0,0,1,4-18.84c1.65-5.34,3.26-9.7,4.48-12.71s2-4.71,2-4.71Z"/><path class="cls-1" d="M127.09,42.55l-8.89,44.28c-0.54,2.76-1,5.54-1.46,8.28s-0.88,5.42-1.42,8-1.16,5-1.8,7.36-1.27,4.52-1.85,6.54-1.19,3.87-1.69,5.5l-0.71,2.29c-0.23.71-.47,1.36-0.65,2-0.68,2.35-1.19,3.75-1.19,3.75l-0.7,0s-0.3-1.42-.61-4c-0.11-1.27-.15-2.81-0.19-4.58s0.08-3.74.2-5.89,0.41-4.45.72-6.89,0.79-5,1.34-7.57,1.35-5.24,2.15-7.92,1.63-5.39,2.41-8.11c1.56-5.44,3.12-10.88,4.72-15.94,0.79-2.53,1.53-5,2.29-7.3l2.12-6.51c1.33-4,2.43-7.39,3.25-9.73l1.28-3.67Z"/><path class="cls-1" d="M181.39,43.89s0.12-1,.27-2.94a71.53,71.53,0,0,0,.25-8.2,21.15,21.15,0,0,0-.81-5.38A3.52,3.52,0,0,0,180,25.58a1.3,1.3,0,0,0-.58-0.14,1.22,1.22,0,0,0-.41,0,2.1,2.1,0,0,0-.53.13A10.16,10.16,0,0,0,175.74,27c-1,.69-1.92,1.46-3,2.34-2.14,1.81-4.29,3.72-6.51,5.78s-4.47,4.21-6.64,6.55a49.14,49.14,0,0,0-5.86,7.49,14,14,0,0,0-1.71,4,6.69,6.69,0,0,0-.2,1.84,4.77,4.77,0,0,0,.45,1.68,8.1,8.1,0,0,0,3,3.11c1.33,0.93,3.08,1.64,4.88,2.69a61.37,61.37,0,0,1,9.86,7,50,50,0,0,1,8.36,9,26,26,0,0,1,3,5.6,16.91,16.91,0,0,1,1.24,6.45,13.78,13.78,0,0,1-1.76,6.56,16.68,16.68,0,0,1-1.95,2.82c-0.39.48-.7,0.79-1.05,1.2l-1.09,1.17a71.52,71.52,0,0,1-9.55,8.42c-3.53,2.44-7.21,4.78-12.17,5.68a11.8,11.8,0,0,1-4.17-.11,8.4,8.4,0,0,1-4.19-2.45,10,10,0,0,1-2.14-3.92,17.5,17.5,0,0,1-.6-3.7c0-.58-0.06-1.17,0-1.73l0.07-1.67c0-.55.11-1.08,0.16-1.62l0-.4,0-.2v-0.1c0,0.13,0-.29,0-0.28l0.14-.72L144.67,98l0.48-1.68a32.33,32.33,0,0,1,1.09-3.09,63.11,63.11,0,0,1,5.59-10.59c2.07-3.24,4.27-6.25,6.5-9.07,4.45-5.67,9.06-10.63,13.35-15.14s8.45-8.4,12.19-11.78c1.85-1.71,3.63-3.26,5.28-4.69s3.17-2.73,4.57-3.87c2.78-2.31,5-4.06,6.57-5.23l2.39-1.78,0.47,0.52-7.47,8.51-8.52,9.75c-3.25,3.78-6.95,8-10.83,12.74-2,2.35-4,4.8-6,7.38s-4.11,5.24-6.15,8-4.09,5.68-6,8.68A72.26,72.26,0,0,0,153,96.05c-0.33.79-.73,1.64-0.93,2.34l-0.39,1.1-0.33,1.43-0.17.72c0,0.07.05-.29,0-0.1v0.08l0,0.16,0,0.33-0.19,1.31-0.12,1.28c0,0.43,0,.82,0,1.23a11.22,11.22,0,0,0,.22,2.19,3.72,3.72,0,0,0,.59,1.36,1.85,1.85,0,0,0,.89.61,6.19,6.19,0,0,0,1.85.13,18.06,18.06,0,0,0,5-1.39,40.31,40.31,0,0,0,5.13-2.55,67.57,67.57,0,0,0,9.76-6.8c0.38-.32.75-0.62,1.13-1s0.81-.71,1.1-1a12.9,12.9,0,0,0,1.79-2.06A10.8,10.8,0,0,0,180,90.41a14.49,14.49,0,0,0-.76-5.55,22.6,22.6,0,0,0-2.63-5.17,34.68,34.68,0,0,0-8.14-8.32,45.31,45.31,0,0,0-9.93-5.54c-1.63-.7-3.55-1.17-5.49-2.14a15.58,15.58,0,0,1-2.81-1.75,16.84,16.84,0,0,1-1.3-1.18,11.68,11.68,0,0,1-1.11-1.46,10.16,10.16,0,0,1-1.4-3.49,11.61,11.61,0,0,1-.07-3.61,17.91,17.91,0,0,1,2.06-6,40.9,40.9,0,0,1,6.67-8.77,90.93,90.93,0,0,1,7.27-6.73c2.41-2,4.83-3.84,7.08-5.52a31.9,31.9,0,0,1,3.69-2.44A14.45,14.45,0,0,1,177.45,21a6.19,6.19,0,0,1,1.3-.13,5.29,5.29,0,0,1,1.41.12,5.23,5.23,0,0,1,1.41.48,6.28,6.28,0,0,1,1.21.84,7.57,7.57,0,0,1,2,4.07,20.88,20.88,0,0,1,.05,6.46A49.82,49.82,0,0,1,183,41.22c-0.58,1.87-1,2.84-1,2.84Z"/><path class="cls-1" d="M36.62,154.85l9.44-2.3c6-1.47,14.61-3.47,24.93-5.89l16.67-3.87c5.92-1.38,12.17-2.75,18.64-4.19,12.94-2.87,26.75-5.9,40.58-8.85l20.64-4.43c6.81-1.48,13.52-2.86,20-4.06s12.86-2.21,18.9-3l8.79-1.19,8.25-.95c5.29-.58,10.16-1,14.49-1.25s8.12-.38,11.25-0.34a48,48,0,0,1,7.3.51,9.07,9.07,0,0,1,1.12.23,5.71,5.71,0,0,1,.81.23l0.65,0.26-0.26.65-0.59-.1a5.06,5.06,0,0,0-.75-0.05,8.22,8.22,0,0,0-1.06,0,65.69,65.69,0,0,0-7,.77c-3,.47-6.71,1.11-10.93,1.9s-9,1.73-14.15,2.73l-16.75,3.28c-5.94,1.19-12.22,2.35-18.73,3.53s-13.26,2.24-20.12,3.33-13.82,2.3-20.78,3.48c-13.91,2.43-27.81,4.94-40.84,7.33l-35.61,6.53-34.74,6.43Z"/></svg>