<svg id="图层_1" data-name="图层 1" xmlns="http://www.w3.org/2000/svg" viewBox="0 0 280 180"><defs><style>.cls-1{fill:#ff1010;}</style></defs><title>point</title><path class="cls-1" d="M136.86,40.35s0.65-.74,1.94-2a72.92,72.92,0,0,1,6-5.3c1.34-1.08,2.89-2.22,4.63-3.38a49.09,49.09,0,0,1,6-3.42,28.4,28.4,0,0,1,7.76-2.55l1.14-.16c0.39,0,.79,0,1.19-0.06a14,14,0,0,1,2.5.12,12,12,0,0,1,5.15,1.93,13,13,0,0,1,2.21,1.88c0.31,0.36.59,0.74,0.88,1.12a7.49,7.49,0,0,1,.79,1.17,15.1,15.1,0,0,1,1.2,2.48l0.48,1.28c0.16,0.43.23,0.85,0.35,1.28a18.68,18.68,0,0,1,.55,2.59l0.18,1.3,0.09,0.66c0-.1,0,0.23,0,0.22v0.23l0,0.3c0,0.81.07,1.61,0.09,2.45s-0.07,1.86-.13,2.8c-0.65,7.23-3.51,14.15-7.25,20.54-1.85,3.22-3.92,6.34-6.11,9.42s-4.45,6.13-6.84,9.13a213.76,213.76,0,0,1-15.43,17.45,102.79,102.79,0,0,1-8.84,7.9,58.21,58.21,0,0,1-5,3.44,25.53,25.53,0,0,1-5.85,2.72c-0.28.08-.57,0.18-0.84,0.24l-0.69.17c-0.44.11-1,.21-1.47,0.32-1,.2-2,0.37-3,0.5a20.46,20.46,0,0,1-6.69-.13,11.86,11.86,0,0,1-3.63-1.41,10.91,10.91,0,0,1-3-2.69,16.19,16.19,0,0,1-2.78-6.44,43.08,43.08,0,0,1-.55-11.59c0.14-1.85.25-3.5,0.57-5.48s0.73-3.59,1.2-5.29a92.22,92.22,0,0,1,7.5-17.85,124.81,124.81,0,0,1,8.59-13.64c1.4-1.95,2.78-3.72,4.12-5.31s2.6-3,3.82-4.26a28.46,28.46,0,0,1,6.27-5.16,5.35,5.35,0,0,1,2.18-.71,1.89,1.89,0,0,1,.65.06l0.22,0.07-0.21.67a1.43,1.43,0,0,0-.54.06,4.39,4.39,0,0,0-1.56,1,31.75,31.75,0,0,0-4.85,5.84c-0.93,1.37-1.94,2.91-3,4.63S124.69,53,123.56,55C121.35,59.1,119,63.75,116.7,69a105.21,105.21,0,0,0-6,17c-0.38,1.51-.69,3-0.91,4.58s-0.36,3.18-.47,4.8a44.09,44.09,0,0,0,.18,9.67,9.42,9.42,0,0,0,1.3,3.62,4.32,4.32,0,0,0,2.54,1.72c2.47,0.69,6.3.2,9.61-.47a20.76,20.76,0,0,0,4.62-1.81,52.69,52.69,0,0,0,4.78-2.67,99.55,99.55,0,0,0,9.29-6.47A98.24,98.24,0,0,0,158,83a74.11,74.11,0,0,0,11.26-18.86,58.32,58.32,0,0,0,4.45-19.26c0-.72,0-1.43,0-2.14l-0.15-2.42,0-.3V39.8c0-.06,0,0.22,0,0.07l-0.08-.54-0.15-1.06a16.58,16.58,0,0,0-.39-2,11.09,11.09,0,0,0-.55-1.87,10.56,10.56,0,0,0-.73-1.64,3.24,3.24,0,0,0-.43-0.71c-0.16-.22-0.3-0.45-0.45-0.66a7.08,7.08,0,0,0-1.09-1A6.37,6.37,0,0,0,167,29.17a10,10,0,0,0-1.59-.18c-0.27,0-.54,0-0.82,0l-0.84.06a26.8,26.8,0,0,0-6.62,1.52c-2.1.74-4.06,1.58-5.86,2.42s-3.41,1.73-4.88,2.51c-2.92,1.62-5.19,3-6.73,3.93l-2.35,1.47Z"/><path class="cls-1" d="M59.48,151l7.81-3c5-1.89,12.1-4.5,20.65-7.63l13.82-5c4.9-1.79,10.1-3.6,15.47-5.49,10.74-3.78,22.22-7.76,33.72-11.68l17.17-5.86c5.66-1.95,11.26-3.8,16.71-5.45s10.78-3.11,15.87-4.35l7.41-1.81c2.41-.54,4.73-1.06,7-1.52s4.39-.91,6.45-1.27,4-.75,5.86-1,3.57-.54,5.19-0.73,3.09-.35,4.44-0.45,2.54-.2,3.6-0.2,1.93-.08,2.67,0l2.23,0.17v0.7l-2.13.36c-1.38.29-3.39,0.73-5.93,1.45-1.27.32-2.67,0.74-4.2,1.21s-3.18.93-4.93,1.49c-3.52,1.06-7.48,2.35-11.8,3.71-2.16.67-4.41,1.4-6.74,2.16l-7.22,2.27c-4.95,1.6-10.2,3.19-15.63,4.82S175.81,117,170,118.62s-11.58,3.26-17.41,4.93c-11.64,3.41-23.26,6.89-34.15,10.19l-29.76,9-29,8.89Z"/></svg>