<svg id="图层_1" data-name="图层 1" xmlns="http://www.w3.org/2000/svg" viewBox="0 0 280 180"><defs><style>.cls-1{fill:#ff1010;}</style></defs><title>point</title><path class="cls-1" d="M50.3,33.51l-0.84,4.06c-0.52,2.59-1.35,6.26-2.29,10.68l-1.54,7.13-1.76,7.94c-1.21,5.51-2.6,11.37-3.94,17.23-0.68,2.93-1.3,5.88-1.9,8.78s-1.21,5.75-1.92,8.48-1.52,5.33-2.35,7.78-1.64,4.76-2.45,6.88-1.58,4-2.31,5.75-1.38,3.18-2,4.39-1,2.15-1.36,2.8l-0.52,1-0.68-.17s0-1.56.14-4.24c0.08-1.34.23-3,.43-4.8s0.48-3.91.84-6.15a147.4,147.4,0,0,1,3.2-15.11c0.77-2.71,1.67-5.49,2.63-8.3s1.91-5.67,2.82-8.54c1.82-5.74,3.6-11.49,5.38-16.85l2.54-7.73,2.32-6.91c1.45-4.28,2.62-7.86,3.5-10.34l1.36-3.91Z"/><path class="cls-1" d="M81.11,66.46a25.7,25.7,0,0,1,1.75-2.66c0.62-.86,1.29-1.67,2-2.47a42.81,42.81,0,0,1,4.52-4.46c0.82-.68,1.65-1.36,2.53-2s1.78-1.22,2.71-1.79,1.92-1.06,2.91-1.56,2.05-.88,3.14-1.25A19.23,19.23,0,0,1,104,49.5a11.05,11.05,0,0,1,1.77-.17,11.26,11.26,0,0,1,1.8,0,14.69,14.69,0,0,1,3.58.68,17.57,17.57,0,0,1,1.7.68c0.54,0.29,1.08.57,1.59,0.87l1.44,1.06c0.45,0.38.85,0.81,1.27,1.2a12.33,12.33,0,0,1,1.12,1.28l0.54,0.65,0.46,0.69c0.3,0.46.62,0.91,0.9,1.37L121,59.26a13,13,0,0,1,.72,1.42l0.7,1.43,0.05,0.11,0,0.12a25,25,0,0,1,.34,4.89,17.74,17.74,0,0,1-.8,5c-0.14.42-.31,0.83-0.47,1.25l-0.45,1.07-1,2.17c-0.64,1.44-1.33,2.86-2.06,4.27s-1.52,2.78-2.39,4.12-1.79,2.64-2.75,3.93-2,2.56-3.08,3.79a37.84,37.84,0,0,1-3.59,3.53,24.76,24.76,0,0,1-4.39,3,16.57,16.57,0,0,1-5.65,1.75,12.31,12.31,0,0,1-6.34-1.16,12.54,12.54,0,0,1-2.54-1.75,12.42,12.42,0,0,1-1.07-1l-0.9-1.08a20.52,20.52,0,0,1-2.63-4.56,22.61,22.61,0,0,1-.87-2.34,18.15,18.15,0,0,1-.66-2.36c-0.17-.79-0.39-1.57-0.51-2.36s-0.23-1.58-.34-2.37a22.79,22.79,0,0,1-.21-2.37c-0.05-.79-0.08-1.58-0.09-2.37l0.68-.16c0.76,1.39,1.39,2.8,2.09,4.16s1.36,2.72,2.14,4l0.54,1c0.19,0.32.4,0.61,0.59,0.92A20.78,20.78,0,0,0,87.31,89a18.46,18.46,0,0,0,2.61,3c0.24,0.19.46,0.39,0.68,0.59a6,6,0,0,0,.7.46,7.54,7.54,0,0,0,1.36.67,6.06,6.06,0,0,0,2.67.14,12.69,12.69,0,0,0,3-1.15,26.33,26.33,0,0,0,3.22-2.15c1.09-.8,2.14-1.74,3.2-2.69s2.07-2,3.06-3.08,2-2.19,2.91-3.33l2.9-3.43c1-1.16,1.94-2.32,2.88-3.51,0.48-.59.94-1.18,1.4-1.79l0.69-.93c0.18-.27.39-0.53,0.55-0.82A10.55,10.55,0,0,0,120.5,67a14.37,14.37,0,0,0-.06-4.29L120.51,63a22.64,22.64,0,0,0-1.45-2.55c-0.28-.4-0.58-0.78-0.86-1.17s-0.66-.69-1-1c-0.17-.17-0.33-0.34-0.5-0.49l-0.56-.42a7.59,7.59,0,0,0-1.13-.77c-0.4-.21-0.79-0.43-1.19-0.61l-1.23-.44-1.25-.26c-0.41-.08-0.84-0.06-1.25-0.12a15.69,15.69,0,0,0-2.49.09,12.32,12.32,0,0,0-1.25.18,12.14,12.14,0,0,0-1.26.25c-0.42.08-.84,0.18-1.27,0.31s-0.86.2-1.29,0.36c-0.87.24-1.73,0.56-2.6,0.88s-1.73.71-2.6,1.1-1.73.81-2.6,1.25-1.73.89-2.6,1.36c-3.47,1.88-6.91,4-10.53,6.05Z"/><path class="cls-1" d="M134.55,61.29a62.11,62.11,0,0,1,5.51-4c0.89-.6,1.91-1.22,3-1.89s2.32-1.38,3.64-2.09,2.75-1.45,4.32-2.15a30.52,30.52,0,0,1,5.36-2,7.87,7.87,0,0,1,2.17-.22,4.39,4.39,0,0,1,1,.17,3.6,3.6,0,0,1,.71.29,3.68,3.68,0,0,1,.86.63,3.55,3.55,0,0,1,1,2.27v0.51a7.1,7.1,0,0,1-.09,1l-0.11.51c-0.08.36-.17,0.6-0.25,0.9-0.17.55-.36,1.06-0.54,1.55-0.75,2-1.61,3.78-2.52,5.64-1.79,3.71-4,7.4-5.54,11.45a18.39,18.39,0,0,0-.88,3.08,9.09,9.09,0,0,0-.14,3.06,5.32,5.32,0,0,0,1.25,2.69,13.85,13.85,0,0,0,2.36,2.32,16.48,16.48,0,0,0,12.72,3.26,19.52,19.52,0,0,0,6.19-2.06c0.48-.26,1-0.49,1.43-0.77s0.93-.56,1.38-0.86l1.34-.91,1.29-1a43.22,43.22,0,0,0,4.74-4.49,61.59,61.59,0,0,0,4.05-5.07l0.93-1.31q0.44-.68.89-1.33l0.45-.66,0.22-.33,0.17-.27,0.88-1.39c0.64-.95,1-1.75,1.55-2.58s0.92-1.69,1.36-2.52A28.8,28.8,0,0,0,197.19,58a9.22,9.22,0,0,0,.23-4.06A5.15,5.15,0,0,0,195.78,51a10.41,10.41,0,0,0-3.18-2,21.7,21.7,0,0,0-6.84-1.39,18.25,18.25,0,0,0-4.66.29,4.4,4.4,0,0,0-.68.17,2.91,2.91,0,0,0-.48.17l-0.37.17-0.46-.53,0.35-.35a3.61,3.61,0,0,1,.46-0.39,5.36,5.36,0,0,1,.67-0.47,16.11,16.11,0,0,1,4.9-1.87,20.52,20.52,0,0,1,3.74-.51,18,18,0,0,1,4.58.27,13.92,13.92,0,0,1,5.26,2,10.93,10.93,0,0,1,4.29,5.43,15.5,15.5,0,0,1,.57,7.16A29.16,29.16,0,0,1,202,65.86c-0.49,1-.94,2.08-1.51,3.11s-1.18,2.12-1.76,3l-0.9,1.38-0.28.42-0.25.35-0.51.71c-0.67,1-1.4,1.89-2.17,2.81a49,49,0,0,1-11,10.15,27.79,27.79,0,0,1-7.13,3.39,23.91,23.91,0,0,1-7.93,1A23.16,23.16,0,0,1,161,90.54a21,21,0,0,1-3.44-1.66,24.47,24.47,0,0,1-3.12-2.13,21.11,21.11,0,0,1-2.74-2.63,8.62,8.62,0,0,1-2-3.49,19.51,19.51,0,0,1-.19-7.55A56,56,0,0,1,153,60c0.77-1.95,1.6-3.8,2.33-5.47,0.18-.42.33-0.81,0.47-1.18,0-.16.13-0.37,0.15-0.47l0.05-.18a0.69,0.69,0,0,0,0,.28l0,0.07V52.78a2.6,2.6,0,0,0,.76,1.64,2.48,2.48,0,0,0,.57.43,2.41,2.41,0,0,0,.39.16,1.1,1.1,0,0,0,.32.05,1.61,1.61,0,0,0-.57,0A35.26,35.26,0,0,0,153,56.25c-1.53.48-3,1-4.38,1.41l-3.91,1.27c-1.21.4-2.32,0.78-3.34,1.08-4.05,1.29-6.46,1.9-6.46,1.9Z"/><path class="cls-1" d="M10.89,155.13l10.87-3.43c6.92-2.18,16.83-5.19,28.73-8.78l19.24-5.74c6.83-2,14.06-4.07,21.53-6.21,15-4.25,30.93-8.68,47-13,8-2.16,16-4.26,23.94-6.33s15.71-4,23.3-5.74c3.8-.84,7.54-1.66,11.22-2.37s7.29-1.41,10.8-2,7-1.18,10.27-1.74,6.56-.94,9.64-1.39c6.19-.84,11.91-1.4,17-1.8,2.54-.19,4.93-0.27,7.13-0.39s4.25,0,6.07-.06,3.48,0.15,4.9.21l2,0.13c0.6,0.07,1.15.17,1.64,0.25l3,0.47-0.09.69L266,98l-1.6,0-1.93.17c-1.39.15-3,.21-4.77,0.49-3.57.44-7.89,1.12-12.82,2-2.46.5-5.1,0.91-7.86,1.48l-8.69,1.77c-3,.66-6.18,1.28-9.43,2s-6.63,1.4-10.09,2.21L187,113.06l-23.37,5c-8,1.68-16,3.54-24.1,5.39-16.12,3.76-32.21,7.68-47.27,11.44L51.16,145.32,22.1,152.89l-11,2.91Z"/></svg>