<svg id="图层_1" data-name="图层 1" xmlns="http://www.w3.org/2000/svg" viewBox="0 0 280 180"><defs><style>.cls-1{fill:#ff1010;}</style></defs><title>point</title><path class="cls-1" d="M148.2,57.57l2-3.2c1.31-2.09,3.22-5.16,5.41-9.15a65.43,65.43,0,0,0,3.2-6.67,16.55,16.55,0,0,0,1-3.69,3.52,3.52,0,0,0,0-1.37c0-.12-0.09-0.13-0.09-0.11s0,0-.08,0a3.76,3.76,0,0,0-1.31,0,12.27,12.27,0,0,0-2,.48c-0.34.1-.73,0.24-1.16,0.38l-1.15.41c-0.79.28-1.58,0.59-2.38,0.91a63.16,63.16,0,0,0-9.62,5,49.78,49.78,0,0,0-9.09,7.09,23.45,23.45,0,0,0-3.51,4.44,7.84,7.84,0,0,0-1.32,4.43,4.14,4.14,0,0,0,.63,1.85,7,7,0,0,0,1.65,1.79c1.8,1.4,3.72,2.95,5.54,4.53a72.69,72.69,0,0,1,10.3,10.87c3.05,4.08,5.74,8.8,6.62,14.17a19.77,19.77,0,0,1-.33,8.08,23.24,23.24,0,0,1-3.39,7.34,41.39,41.39,0,0,1-5.23,6c-1.84,1.89-3.71,3.75-5.65,5.55s-3.92,3.6-6,5.27a55,55,0,0,1-6.68,4.67A39.43,39.43,0,0,1,109.84,132a58.91,58.91,0,0,1-8.22.34c-1.38,0-2.65-.12-4.08-0.22-0.58,0-1.46-.14-2.18-0.28A15.83,15.83,0,0,1,93,131.3a9.5,9.5,0,0,1-4.7-3.14,7.8,7.8,0,0,1-1.39-3,9.13,9.13,0,0,1-.18-3,15.25,15.25,0,0,1,1.32-4.71,29,29,0,0,1,2.06-3.8,72,72,0,0,1,10.17-12.08c1.81-1.78,3.7-3.53,5.54-5.11l5.47-4.72q5.44-4.63,10.75-8.92C129.14,77.19,136,72,142.34,67.24s12.36-8.88,17.79-12.39c2.7-1.78,5.27-3.37,7.68-4.81s4.65-2.72,6.72-3.79a61.79,61.79,0,0,1,9.94-4.38,21.52,21.52,0,0,1,2.81-.69c0.65-.1,1-0.13,1-0.13l0.11,0.69s-0.31.08-.9,0.27A20.47,20.47,0,0,0,185,43.11a73.68,73.68,0,0,0-9,5.55c-1.86,1.32-3.92,2.8-6.12,4.46s-4.55,3.5-7.06,5.47c-5,4-10.59,8.51-16.61,13.57s-12.54,10.56-19.41,16.41l-10.57,9-5.48,4.64c-1.84,1.56-3.61,3.06-5.37,4.71a69,69,0,0,0-9.51,10.56,22.42,22.42,0,0,0-1.69,2.85,9,9,0,0,0-.89,2.61,2,2,0,0,0,.19,1.41,3.44,3.44,0,0,0,1.66,1.1,27.55,27.55,0,0,0,6.83,1.11,54.42,54.42,0,0,0,7.46.23,35.16,35.16,0,0,0,14.32-3.5,62,62,0,0,0,12.79-8.5c2-1.67,3.91-3.42,5.79-5.19a37.33,37.33,0,0,0,5.08-5.64,19,19,0,0,0,3-6.64,16.16,16.16,0,0,0,0-7.12,21.47,21.47,0,0,0-2.73-6.58,35.26,35.26,0,0,0-4.33-5.67,72.13,72.13,0,0,0-10.69-9.18c-1.89-1.38-3.75-2.63-5.72-3.93a12.87,12.87,0,0,1-3.2-3.1A10.14,10.14,0,0,1,122,57.25a11.38,11.38,0,0,1,.36-4.56,16,16,0,0,1,1.6-3.75,27.16,27.16,0,0,1,4.53-5.71A51.28,51.28,0,0,1,139,35.45a66.42,66.42,0,0,1,10.76-4.88A47.28,47.28,0,0,1,155,29a16.89,16.89,0,0,1,2.91-.44,7.65,7.65,0,0,1,3.5.52,4.62,4.62,0,0,1,1.84,1.4,4.83,4.83,0,0,1,.91,2,7.63,7.63,0,0,1-.11,3.17,20.44,20.44,0,0,1-1.76,4.48,52.31,52.31,0,0,1-4.18,6.67,104.26,104.26,0,0,1-6.8,8.41c-1.66,1.85-2.61,2.79-2.61,2.79Z"/><path class="cls-1" d="M51,166.88l7.65-3.27c4.86-2.09,11.85-5,20.24-8.44l13.56-5.54c4.81-2,9.92-4,15.2-6,10.56-4.14,21.85-8.49,33.19-12.74l16.93-6.34c5.59-2.09,11.11-4.08,16.52-5.85,2.71-.85,5.36-1.74,8-2.48s5.2-1.53,7.73-2.18c5-1.38,9.83-2.58,14.29-3.56l3.27-.73,3.15-.62c2-.4,4-0.8,5.82-1.07,3.66-.63,6.89-1,9.55-1.31s4.76-.4,6.21-0.4l2.2,0,0.08,0.7-2.11.57c-0.68.2-1.53,0.38-2.51,0.67l-3.38,1c-1.27.34-2.66,0.82-4.17,1.28s-3.15,1-4.9,1.55c-3.5,1.1-7.42,2.42-11.7,3.84l-13.82,4.64c-4.89,1.68-10.08,3.38-15.45,5.13s-11,3.41-16.66,5.13-11.43,3.57-17.18,5.41c-11.48,3.74-22.93,7.59-33.65,11.27L79.72,157.5l-28.51,10Z"/></svg>