<svg id="图层_1" data-name="图层 1" xmlns="http://www.w3.org/2000/svg" viewBox="0 0 280 180"><defs><style>.cls-1{fill:#ff1010;}</style></defs><title>point</title><path class="cls-1" d="M57.32,37.87l7.8-.28c5-.23,12.06-0.47,20.52-1.15,2.11-.18,4.3-0.39,6.55-0.67,1.11-.17,2.26-0.3,3.34-0.55l0.83-.16,0.73-.22,0.36-.11,0.09,0h0l0.13,0,0.21-.08,0.86-.3a14.19,14.19,0,0,1,4.27-.56,12.77,12.77,0,0,1,4.3.88,11.38,11.38,0,0,1,3.89,2.51,9.81,9.81,0,0,1,2.52,4.19c0.11,0.4.19,0.81,0.28,1.22l0,0.15,0,0.08,0,0.19,0,0.25c0,0.2,0,.49,0,0.73,0,0.8-.1,1.48-0.18,2.18-0.15,1.39-.33,2.75-0.52,4.13-0.39,2.74-.81,5.49-1.25,8.26l-2.74,16.75c-0.9,5.61-1.84,11.21-2.68,16.74s-1.7,11-2.61,16.19-1.89,10.27-2.88,15l-1.38,6.95-1.33,6.48c-0.82,4.16-1.62,8-2.25,11.34s-1.16,6.33-1.51,8.75a35.42,35.42,0,0,0-.46,5.6,6,6,0,0,0,.17,1.39l0.16,0.4-0.54.44a5.07,5.07,0,0,1-.37-0.49,6.85,6.85,0,0,1-.62-1.54,27.76,27.76,0,0,1-.83-5.91q-0.11-1.9-.13-4.19c0-1.52,0-3.16.08-4.91s0.17-3.61.29-5.56,0.27-4,.49-6.14l0.67-6.65,0.9-7.09c0.62-4.86,1.45-10,2.39-15.21s2.12-10.64,3.34-16.1l3.62-16.57,3.5-16.57c0.56-2.73,1.11-5.44,1.61-8.11,0.25-1.33.49-2.66,0.69-4,0.1-.64.19-1.3,0.24-1.84a3.94,3.94,0,0,0-.12-1.34A6.62,6.62,0,0,0,105.94,38a9.16,9.16,0,0,0-3.07-.78,11.55,11.55,0,0,0-3.08.19l-0.88.25-0.22.06s0.11,0,0,0l-0.06,0-0.13,0L98,37.91l-1,.24-0.93.13c-1.25.2-2.42,0.26-3.59,0.37-2.33.15-4.56,0.24-6.7,0.29C81.49,39,77.57,39,74.1,39s-6.49-.09-9-0.16l-7.81-.26v-0.7Z"/><path class="cls-1" d="M143.06,58.81a17,17,0,0,1,4.33-.58,15.72,15.72,0,0,1,4.51.62,11.9,11.9,0,0,1,4.38,2.35,12.47,12.47,0,0,1,1,.94l0.84,1.08a11.37,11.37,0,0,1,1.18,2.46,12.36,12.36,0,0,1,.58,2.6,17.57,17.57,0,0,1,0,2.54,21.08,21.08,0,0,1-.89,4.69c-0.24.73-.48,1.46-0.76,2.17s-0.63,1.36-.95,2a31.74,31.74,0,0,1-2.3,3.74,40.21,40.21,0,0,1-2.7,3.36c-0.95,1.07-1.88,2.14-2.89,3.13L146.48,93c-1,1-1.87,2.07-2.8,3.09s-1.82,2.09-2.7,3.16-1.78,2.12-2.64,3.22l-2.55,3.3-2.53,3.34-2.6-3.4c2.13-1.55,4.28-3,6.49-4.42s4.48-2.67,6.73-4a127.67,127.67,0,0,1,14-7.12c2.41-1,4.86-2,7.36-2.83s5-1.63,7.62-2.26a48.68,48.68,0,0,1,8-1.34,21.9,21.9,0,0,1,4.15,0,11,11,0,0,1,2.1.45,4.53,4.53,0,0,1,1.9,1.12l-0.41.57a6.46,6.46,0,0,0-3.49.13,29,29,0,0,0-3.51,1.14c-2.32.91-4.62,2-6.9,3s-4.57,2.2-6.84,3.33l-6.85,3.38c-4.57,2.26-9.27,4.31-14,6.4-2.35,1-4.67,2.14-7,3.17L136.36,108l-3.59,1.45-13.22,5.34,10.62-8.75,3.19-2.62q1.61-1.31,3.09-2.73c1-.95,2-1.91,2.91-2.91s1.81-2.05,2.68-3.11,1.64-2.19,2.4-3.32,1.44-2.33,2.11-3.52,1.25-2.42,1.85-3.63,1.1-2.45,1.69-3.63c0.29-.6.52-1.2,0.78-1.79s0.56-1.17.78-1.76,0.47-1.17.73-1.74,0.41-1.15.64-1.72a21.68,21.68,0,0,0,.88-3.36,4.85,4.85,0,0,0,.08-0.8c0-.26.06-0.53,0.07-0.79a9.47,9.47,0,0,0-.13-1.46,5.5,5.5,0,0,0-1.09-2.61,9,9,0,0,0-2.45-2.2,25,25,0,0,0-7.3-2.85Z"/><path class="cls-1" d="M43.86,160.69l8.31-2.3c5.29-1.47,12.87-3.48,22-5.9l14.69-3.87c5.21-1.38,10.73-2.74,16.43-4.19,11.41-2.87,23.59-5.88,35.8-8.81l18.22-4.39c6-1.46,11.94-2.82,17.72-4s11.39-2.16,16.74-3l7.8-1.15,7.32-.9c4.7-.55,9-0.9,12.89-1.14s7.23-.29,10-0.21a39.16,39.16,0,0,1,6.49.6,12.77,12.77,0,0,1,1.7.46l0.57,0.21-0.21.67-0.55-.06a11.87,11.87,0,0,0-1.62,0,53.69,53.69,0,0,0-6.23.68c-2.68.42-5.94,1-9.66,1.77s-7.92,1.64-12.5,2.6L195,130.92c-5.25,1.16-10.8,2.3-16.54,3.45s-11.72,2.2-17.79,3.27-12.22,2.27-18.37,3.44c-12.3,2.41-24.58,4.9-36.09,7.29l-31.46,6.53L44,161.37Z"/></svg>