<svg id="图层_1" data-name="图层 1" xmlns="http://www.w3.org/2000/svg" viewBox="0 0 280 180"><defs><style>.cls-1{fill:#ff1010;}</style></defs><title>point</title><path class="cls-1" d="M98.21,22.34c-0.5,2.13-1,4.23-1.57,6.34S95.56,32.88,95,35l-1.68,6.26-1.71,6.23L88.19,59.89,86.54,66.1l-1.71,6.19-1.75,6.18c-0.57,2.06-1.16,4.13-1.67,6.21a81.33,81.33,0,0,0-2.27,12.62,48.28,48.28,0,0,0-.15,6.38,35.71,35.71,0,0,0,.8,6.27,22.51,22.51,0,0,0,2.14,5.77A12.49,12.49,0,0,0,85.82,120l0.3,0.29c-0.05-.08,0,0,0.08,0l0.18,0.1a1.85,1.85,0,0,0,.42.13,2.42,2.42,0,0,0,.94,0,5.58,5.58,0,0,0,2.17-1.07,20.64,20.64,0,0,0,4-4.49,63.07,63.07,0,0,0,3.44-5.5q1.61-2.87,3.06-5.88t2.77-6.09q1.33-3.08,2.58-6.21c0.4-1,.85-2.13,1.21-3.1l0.59-1.58,0.51-1.47a32,32,0,0,0,1.44-5.85,9.78,9.78,0,0,0,.06-2.39c0-.15-0.06-0.28-0.08-0.42s-0.07-.21-0.1-0.31a2,2,0,0,0-.18-0.33,0.86,0.86,0,0,0-.28-0.25,3,3,0,0,0-.73-0.23,9.33,9.33,0,0,0-2.41-.07,27.72,27.72,0,0,0-6,1.35c-2,.66-4.11,1.42-6.16,2.28s-4.09,1.78-6.13,2.73-4.07,2-6.1,3l-6.08,3.11-6.09,3.17-0.41-.57c1.68-1.59,3.43-3.1,5.21-4.56s3.6-2.89,5.47-4.25,3.76-2.71,5.7-4,3.93-2.51,6-3.64a65,65,0,0,1,6.4-3.17,34.11,34.11,0,0,1,7.24-2.24,14.54,14.54,0,0,1,4.41-.14,10.29,10.29,0,0,1,2.56.67,8.23,8.23,0,0,1,4.27,4.15c0.18,0.43.34,0.87,0.48,1.29s0.21,0.84.29,1.25A15.76,15.76,0,0,1,117,80.1a33.75,33.75,0,0,1-1.81,7.43l-0.65,1.75c-0.22.58-.44,1.07-0.66,1.6-0.48,1.15-1,2.14-1.43,3.22-1,2.11-1.93,4.22-3,6.3s-2.13,4.15-3.28,6.19-2.36,4.06-3.69,6a47.57,47.57,0,0,1-4.41,5.7,23.57,23.57,0,0,1-5.87,4.86A9.45,9.45,0,0,1,88,124.41a6.21,6.21,0,0,1-2.43-.42,5.43,5.43,0,0,1-1.12-.6A5.11,5.11,0,0,1,84,123a4.44,4.44,0,0,1-.54-0.57l0.3,0.29a16.68,16.68,0,0,1-4.18-5.79,27.63,27.63,0,0,1-1.92-6.53,73.24,73.24,0,0,1-.87-13.21c0-4.39.22-8.79,0.57-13.18A123.46,123.46,0,0,1,79,70.92c0.4-2.16.89-4.29,1.43-6.42s1.15-4.22,1.78-6.32,1.32-4.17,2-6.24,1.44-4.12,2.22-6.16S88,41.72,88.88,39.7s1.74-4,2.64-6,1.88-3.94,2.86-5.89,2-3.87,3.18-5.75Z"/><path class="cls-1" d="M143.13,33.85s0.38,1.57.82,4.23,0.92,6.44,1.4,10.87c0.22,2.22.53,4.59,0.7,7.1s0.11,5.19.38,8a15.68,15.68,0,0,0,2.73,7.9,10,10,0,0,0,3.06,2.8A8.28,8.28,0,0,0,156,75.8a18.27,18.27,0,0,0,7.55-1.86,40.5,40.5,0,0,0,7-4c2.2-1.54,4.33-3.08,6.38-4.56l5.84-4.21c1.82-1.33,3.52-2.54,5-3.62s2.87-2,4-2.74c2.24-1.52,3.66-2.29,3.66-2.29L196,53s-0.7,1.44-2.15,3.78c-0.36.59-.79,1.21-1.26,1.89s-1,1.43-1.55,2.18c-1.14,1.53-2.51,3.2-4.08,5a65.25,65.25,0,0,1-5.47,5.34,42,42,0,0,1-7.09,5,40.67,40.67,0,0,1-8.85,3.71,17,17,0,0,1-10.39-.29,14.51,14.51,0,0,1-4.47-2.7,20.64,20.64,0,0,1-3.25-3.68,69.86,69.86,0,0,1-4.59-8.09,32.75,32.75,0,0,1-2.9-8.21,37.84,37.84,0,0,1-.55-7.65A46.56,46.56,0,0,1,141,37.92a26.66,26.66,0,0,1,1.46-4.15Z"/><path class="cls-1" d="M171.89,43.7l-3,38.94c-0.18,2.43-.29,4.86-0.37,7.26s-0.18,4.75-.38,7-0.5,4.43-.84,6.48-0.66,4-1,5.77L165.4,114c-0.28,1.44-.51,2.7-0.69,3.73a18.18,18.18,0,0,0-.27,2.36,3.46,3.46,0,0,0,0,.57l0,0.19-0.56.42-0.2-.19a3.41,3.41,0,0,1-.47-0.63,11.11,11.11,0,0,1-1.06-2.52,30.54,30.54,0,0,1-.9-4,51,51,0,0,1-.59-5.12c-0.13-1.87-.2-3.89-0.18-6a64.4,64.4,0,0,1,.36-6.65c0.26-2.29.65-4.64,1.12-7s0.91-4.79,1.33-7.2c0.84-4.83,1.68-9.65,2.59-14.15,0.45-2.25.87-4.43,1.31-6.49l1.24-5.8c0.79-3.59,1.42-6.58,1.92-8.66l0.78-3.28Z"/><path class="cls-1" d="M23,153.72l9.53-2.78c6.06-1.77,14.74-4.2,25.17-7.12l16.84-4.66c6-1.65,12.3-3.31,18.84-5,13.08-3.46,27.05-7.08,41.06-10.59l20.91-5.24c6.9-1.73,13.71-3.35,20.34-4.77s13.07-2.62,19.22-3.6l9-1.42q4.35-.6,8.41-1.12c5.4-.68,10.38-1.13,14.81-1.43s8.31-.38,11.52-0.27a42,42,0,0,1,7.45.76,14.56,14.56,0,0,1,1.93.57l0.65,0.25-0.24.66-0.63-.11a13.63,13.63,0,0,0-1.85-.16,53.4,53.4,0,0,0-7.18.53c-3.09.4-6.84,1-11.14,1.83s-9.12,1.8-14.39,2.89l-17,3.66c-6,1.35-12.4,2.7-19,4.09s-13.45,2.69-20.41,4-14,2.82-21.07,4.29c-14.1,3-28.17,6.1-41.36,9.08l-36,8.19-35.13,8.15Z"/></svg>