<svg id="图层_1" data-name="图层 1" xmlns="http://www.w3.org/2000/svg" viewBox="0 0 280 180"><defs><style>.cls-1{fill:#ff1010;}</style></defs><title>point</title><path class="cls-1" d="M73.81,55.28S74.56,54.82,76,54,79.63,52.2,82.46,51c1.41-.62,3-1.24,4.75-1.88s3.67-1.29,5.77-1.86a49.49,49.49,0,0,1,6.9-1.43,28.47,28.47,0,0,1,4-.25,16.66,16.66,0,0,1,4.56.64A10,10,0,0,1,111,47.39a7.87,7.87,0,0,1,2.29,2.3,8,8,0,0,1,1.14,3.08,11.11,11.11,0,0,1,0,2.91,18.16,18.16,0,0,1-1.37,4.91,32.72,32.72,0,0,1-2.2,4.26,57.38,57.38,0,0,1-5.68,7.65c-2.08,2.4-4.28,4.74-6.53,7.13l-6.87,7.22-6.93,7.46c-4.65,5-9.33,10.18-14.19,15.23q-3.66,3.77-7.51,7.36c-1.29,1.18-2.6,2.33-3.9,3.47s-2.66,2.23-3.68,3.25a4,4,0,0,0-.5.57,0.56,0.56,0,0,0,.2-0.37,2.41,2.41,0,0,0,.11-1.07,2,2,0,0,0-.27-0.91c-0.08-.08.3,0.4-0.43-0.65a2.92,2.92,0,0,0-1.47-.93,2.74,2.74,0,0,0-.74-0.11l-0.36,0-0.2,0-0.17,0c-0.05,0,0,0,0,0l0.32-.19c0.27-.16.59-0.37,0.9-0.58,1.28-.87,2.62-1.88,3.93-2.87l7.83-6c5.15-4,10.27-7.68,15.27-11s9.87-6.27,14.44-8.88,8.92-4.76,12.86-6.47c2-.88,3.84-1.62,5.59-2.26s3.38-1.19,4.88-1.6a44.93,44.93,0,0,1,7.05-1.48c1.66-.18,2.54-0.19,2.54-0.19l0.11,0.69A50.82,50.82,0,0,0,118.79,83c-1.33.69-2.79,1.45-4.35,2.34s-3.23,1.89-5,3c-3.53,2.2-7.48,4.76-11.69,7.7s-8.76,6.17-13.55,9.62-9.85,7.11-15.18,10.8c-2.66,1.85-5.36,3.76-8.17,5.64-1.41.95-2.82,1.89-4.39,2.83-0.4.24-.8,0.47-1.27,0.72-0.23.12-.49,0.25-0.81,0.39-0.16.07-.34,0.14-0.59,0.23a4.6,4.6,0,0,1-.48.13l-0.35.06a3.65,3.65,0,0,1-.52,0,3.37,3.37,0,0,1-.9-0.13,3.19,3.19,0,0,1-1.61-1c-0.78-1.08-.4-0.66-0.51-0.78a2.67,2.67,0,0,1-.3-1.07,3.81,3.81,0,0,1,.19-1.7,4.87,4.87,0,0,1,.84-1.47,10.43,10.43,0,0,1,1.27-1.26c1.52-1.26,2.87-2.22,4.28-3.23l4.18-3q4.19-2.95,8.26-6.13A128.19,128.19,0,0,0,83.3,92.88c2.31-2.49,4.51-5,6.57-7.66s4-5.3,5.8-8,3.58-5.35,5.28-7.92,3.21-5.09,4.54-7.54a23.53,23.53,0,0,0,2.73-6.87,5.05,5.05,0,0,0,0-1.24,2.38,2.38,0,0,0-.22-0.75,2.59,2.59,0,0,0-1.49-1.07,17.36,17.36,0,0,0-6.23-.66,61.4,61.4,0,0,0-6.39.63c-2,.3-3.94.63-5.71,1l-4.87,1L76.5,55.36l-2.44.57Z"/><path class="cls-1" d="M143.85,40a3.56,3.56,0,0,1,.79,1.38,11.39,11.39,0,0,1,.58,4c0,0.42,0,.86-0.06,1.32L144.94,48,144.42,51c-0.37,2.06-.82,4.35-1.22,6.84l-1.27,7.92a29,29,0,0,0-.48,8.79A10.63,10.63,0,0,0,143,78.79a9.15,9.15,0,0,0,3.4,3.12A11.41,11.41,0,0,0,151,83.18a20.45,20.45,0,0,0,4.87-.31c1.63-.27,3.2-0.7,4.83-1.12s3.27-.85,4.9-1.29c3.23-.85,6.34-1.89,9.3-2.94,5.92-2.12,11.36-4.19,15.91-6.34C193.09,70.1,195.16,69,197,68s3.35-1.95,4.62-2.76,2.22-1.32,2.84-1.82,0.87-1.46.82-.46h0.7a5.52,5.52,0,0,1-.49,1.27,20.93,20.93,0,0,1-2,3.1,36.09,36.09,0,0,1-3.79,4.33,47.18,47.18,0,0,1-5.75,4.79,54.4,54.4,0,0,1-16.81,8.07,85,85,0,0,1-10.25,2.14,50.4,50.4,0,0,1-5.33.55,34.89,34.89,0,0,1-5.58-.08,24.68,24.68,0,0,1-10.69-3.35,15.85,15.85,0,0,1-4.07-3.75,21.7,21.7,0,0,1-2.7-4.69,29.31,29.31,0,0,1-2.31-9.93,31.3,31.3,0,0,1,.9-8.86,55.13,55.13,0,0,1,2.13-7.07c0.37-1,.77-2,1.12-2.82l0.51-1.2c0.16-.35.37-0.7,0.53-1,0.68-1.3,1.19-2.33,1.48-3s0.34-1.12.35-1.08Z"/><path class="cls-1" d="M185,36.27l-0.18.08a2.82,2.82,0,0,0-.57.44,8.09,8.09,0,0,0-1.55,2.56A27.3,27.3,0,0,0,181.32,44c-0.38,1.83-.67,4-1,6.32-0.64,4.68-1.3,10.16-2,16s-1.39,12.12-2,18.38c-0.29,3.13-.51,6.27-0.67,9.35s-0.32,6.11-.55,9-0.55,5.72-.86,8.38L173.41,119c-0.25,2.31-.47,4.43-0.64,6.31s-0.25,3.52-.29,4.87,0,2.42.05,3.14c0,0.37.06,0.64,0.08,0.83l0,0.29-0.65.26a9.53,9.53,0,0,1-.63-1,18.38,18.38,0,0,1-1.35-3.11,37,37,0,0,1-1.31-5,60.71,60.71,0,0,1-.89-6.6c-0.21-2.42-.32-5-0.32-7.8s0.12-5.66.38-8.64,0.74-6,1.29-9.13L170.79,84c1.07-6.26,2.21-12.49,3.45-18.31s2.46-11.22,3.6-15.84c0.58-2.31,1.09-4.43,1.71-6.31a25,25,0,0,1,2-4.73,9.06,9.06,0,0,1,2.12-2.65,3.54,3.54,0,0,1,.83-0.48,1.59,1.59,0,0,1,.37-0.09Z"/><path class="cls-1" d="M29.21,156.91l9.24-2.65c5.88-1.69,14.31-4,24.44-6.76l16.36-4.4c5.81-1.56,12-3.11,18.31-4.73,12.72-3.23,26.3-6.59,39.93-9.8l20.35-4.76c6.72-1.57,13.36-3,19.81-4.25s12.74-2.25,18.73-3q4.49-.61,8.73-1.12c2.83-.3,5.57-0.57,8.2-0.82,5.26-.48,10.11-0.72,14.42-0.81a109.07,109.07,0,0,1,11.19.3,41.83,41.83,0,0,1,7.17,1.14,16.18,16.18,0,0,1,1.84.57l0.62,0.22-0.2.67-0.63-.08a15.26,15.26,0,0,0-1.83-.17,54.19,54.19,0,0,0-7,.16c-3,.24-6.67.66-10.85,1.27s-8.89,1.4-14,2.29q-3.85.68-8,1.47t-8.56,1.6c-5.87,1.16-12.07,2.32-18.49,3.53l-19.85,3.51c-6.77,1.18-13.62,2.49-20.48,3.81-13.7,2.69-27.38,5.53-40.19,8.28l-35,7.6-34.1,7.67Z"/></svg>