<svg id="图层_1" data-name="图层 1" xmlns="http://www.w3.org/2000/svg" viewBox="0 0 280 180"><defs><style>.cls-1{fill:#ff1010;}</style></defs><title>point</title><path class="cls-1" d="M119.45,52.15c1.12-1.78,2.19-3.6,3.24-5.42s2-3.67,3-5.52,1.79-3.74,2.54-5.63A24.08,24.08,0,0,0,129.8,30a7,7,0,0,0-.05-2.41,1.79,1.79,0,0,0-.78-1.24,3.75,3.75,0,0,0-1.8-.49,11.63,11.63,0,0,0-2.59.14,35.33,35.33,0,0,0-5.66,1.4c-1.91.62-3.81,1.36-5.7,2.15l0.25-.11-3.74,2.1q-1.88,1.07-3.74,2.18c-2.47,1.48-4.93,3-7.34,4.56a163,163,0,0,0-13.92,9.94,57.2,57.2,0,0,0-6.12,5.65,19,19,0,0,0-4.16,6.46,7,7,0,0,0-.27,3.32,6.83,6.83,0,0,0,1.56,3.06,18.82,18.82,0,0,0,6.66,4.48l-0.16-.05c4.57,1.37,9,2.85,13.48,4.43s8.88,3.21,13.22,5.09a119.29,119.29,0,0,1,12.83,6.24,47.18,47.18,0,0,1,11.63,8.87,20.62,20.62,0,0,1,4.15,6.67,14.65,14.65,0,0,1,.9,4.08,14,14,0,0,1-.27,4.22c-1.15,5.59-4.93,9.8-8.38,13.05-0.78.81-1.84,1.67-2.79,2.49l-0.73.62-0.76.56L124,128.54c-1,.74-2.13,1.38-3.21,2.06l-1.71.9a15.55,15.55,0,0,1-1.75.84l-1.8.76-1.88.61a15.09,15.09,0,0,1-1.93.51,19.08,19.08,0,0,1-2,.39,24.77,24.77,0,0,1-8.14-.08,24.22,24.22,0,0,1-14.14-8,23.71,23.71,0,0,1-4.3-7.08,19.53,19.53,0,0,1-1.35-8.5c0-.37,0-0.75.1-1.12l0.21-1.12a14.88,14.88,0,0,1,.64-2.22,20.79,20.79,0,0,1,1-2.13l0.66-1,0.34-.49,0.08-.12,0.2-.25,0,0,0.15-.16c1.62-1.77,3.22-3.48,4.85-5.2,3.26-3.42,6.59-6.77,10-10.09s6.84-6.53,10.34-9.71,7.14-6.23,10.83-9.2a121,121,0,0,1,11.63-8.28,52.1,52.1,0,0,1,6.34-3.4,17.67,17.67,0,0,1,7-1.78l0,0.7A17.82,17.82,0,0,0,140,58a62.1,62.1,0,0,0-5.61,4c-3.6,2.9-7,6-10.38,9.26s-6.61,6.56-9.85,9.9-6.39,6.8-9.55,10.22-6.26,6.92-9.34,10.43c-1.54,1.74-3.08,3.51-4.58,5.26l-0.14.17,0,0,0.13-.16,0,0.06-0.15.25c-0.1.16-.2,0.33-0.31,0.49-0.15.36-.34,0.7-0.47,1.07a7.52,7.52,0,0,0-.31,1.16l-0.11.61c0,0.2,0,.42,0,0.63a13.06,13.06,0,0,0,.93,5.28,17.72,17.72,0,0,0,12.76,10.73,20.51,20.51,0,0,0,11.79-1.33,11.15,11.15,0,0,0,1.45-.63l1.43-.68c0.92-.55,1.87-1,2.77-1.65l1.35-.92,0.68-.46,0.63-.5c0.84-.69,1.67-1.24,2.56-2.08l1.31-1.17,0.59-.52L128,117q0.58-.56,1.09-1.15a18.63,18.63,0,0,0,3.81-6.36,9.87,9.87,0,0,0,.4-2.76,9.69,9.69,0,0,0-.36-2.82,16.13,16.13,0,0,0-2.81-5.48,41.6,41.6,0,0,0-10-9A88.44,88.44,0,0,0,108,82.69a137.94,137.94,0,0,0-13-5.15,132.82,132.82,0,0,0-13.45-3.8H81.5l-0.1,0a34.17,34.17,0,0,1-4.24-1.82A17.31,17.31,0,0,1,73.21,69,10.65,10.65,0,0,1,70.4,64.6a11,11,0,0,1-.18-5.37A17.87,17.87,0,0,1,72,54.52a28.94,28.94,0,0,1,2.6-4,53.77,53.77,0,0,1,6.28-6.77A101.51,101.51,0,0,1,95.26,33c2.53-1.58,5.07-3.11,7.67-4.56q1.95-1.08,3.92-2.13c1.32-.7,2.62-1.36,4-2l0.18-.09,0.07,0c2-.73,4.12-1.42,6.25-2q1.6-.44,3.26-0.77a25.12,25.12,0,0,1,3.43-.47,16.34,16.34,0,0,1,3.72.11,8.22,8.22,0,0,1,4.06,1.68,6.4,6.4,0,0,1,2.25,4.14,10.5,10.5,0,0,1-.25,3.88A27.71,27.71,0,0,1,131.36,37,56.56,56.56,0,0,1,128,42.58c-1.2,1.78-2.49,3.49-3.81,5.16S121.46,51,120,52.58Z"/><path class="cls-1" d="M216.45,31.24c-3.76,4.48-7.59,8.87-11.4,13.26L193.63,57.66c-3.83,4.35-7.55,8.79-11.27,13.21S175,79.77,171.43,84.25s-7.14,9-10.33,13.69a64.28,64.28,0,0,0-4.31,7.28,28.34,28.34,0,0,0-1.56,3.83,14.38,14.38,0,0,0-.78,3.89,6.6,6.6,0,0,0,.72,3.54,5.79,5.79,0,0,0,2.69,2.38,18,18,0,0,0,8.08,1.12l4.32-.36c1.4-.21,2.81-0.37,4.21-0.66l2.08-.47,1-.24,1-.31,2-.63,2-.79c5.19-2.1,9.61-5.78,11.88-10.47s2.53-10.16,1.62-15.43a44.13,44.13,0,0,0-5.72-15.08,31,31,0,0,0-2.25-3.21c-0.19-.26-0.4-0.48-0.6-0.71l-0.3-.34-0.07-.09,0.06,0.06,0,0L187,71l-1.56-1.52a65.52,65.52,0,0,0-6.48-4.81,80.36,80.36,0,0,1-7.37-5.37,24.4,24.4,0,0,1-6.3-8c-0.19-.4-0.39-0.8-0.57-1.2l-0.41-1.26a14.38,14.38,0,0,1-.67-2.53c-0.13-.85-0.3-1.71-0.38-2.55l-0.05-2.51a16.05,16.05,0,0,1,.14-2.45l0.12-1.21,0.06-.6,0-.3,0-.25,0-.13,0.2-1.07,0.1-.54L164,34.1c0.2-.83.41-1.66,0.66-2.41A32.92,32.92,0,0,1,168.91,23a33.4,33.4,0,0,1,6.5-7,32.41,32.41,0,0,1,8.11-4.86,24.44,24.44,0,0,1,4.61-1.42,15.53,15.53,0,0,1,2.56-.29,6.56,6.56,0,0,1,3.18.67l-0.5-.18a12.24,12.24,0,0,1,1.56.57c0.48,0.2.93,0.44,1.39,0.67s0.89,0.5,1.32.77,0.85,0.55,1.25.86,0.81,0.6,1.18.95,0.75,0.67,1.09,1l1,1.11c0.31,0.39.6,0.79,0.9,1.19a12.26,12.26,0,0,1,.81,1.24,9.65,9.65,0,0,1,.71,1.29l0.62,1.33c0.17,0.46.32,0.92,0.48,1.37a9.22,9.22,0,0,1,.41,1.38l0.31,1.4a14,14,0,0,1,.19,1.41l0.15,1.41L206,28l-0.4-1.31a13,13,0,0,0-.42-1.29l-0.52-1.25A8.2,8.2,0,0,0,204.1,23l-0.63-1.17-0.74-1.09a9.71,9.71,0,0,0-.8-1,10.25,10.25,0,0,0-.85-1l-0.92-.91-1-.82c-0.34-.26-0.7-0.49-1-0.74s-0.72-.44-1.08-0.67-0.75-.39-1.12-0.59-0.77-.34-1.15-0.5-0.78-.29-1.17-0.39a8.56,8.56,0,0,0-1.09-.26l-0.5-.18a8.17,8.17,0,0,0-1.1,0,11.52,11.52,0,0,0-1.75.39,19.91,19.91,0,0,0-3.59,1.52,30.68,30.68,0,0,0-6.45,4.68,27.91,27.91,0,0,0-7.89,13.3c-0.18.64-.29,1.23-0.4,1.82l-0.09.45-0.07.54-0.16,1.08-0.11,1.85a10.92,10.92,0,0,0,0,1.9l0.11,1.85c0.09,0.6.23,1.17,0.32,1.75a8.11,8.11,0,0,0,.48,1.67l0.27,0.82,0.39,0.76a17.87,17.87,0,0,0,4.51,5.54c1.94,1.71,4.29,3.28,6.67,5a67.76,67.76,0,0,1,7.31,5.88l1.51,1.57,0.19,0.2,0.2,0.21,0.1,0.12,0.4,0.49c0.27,0.33.54,0.65,0.77,1a37.87,37.87,0,0,1,2.6,4A48.34,48.34,0,0,1,202,89.79a33.16,33.16,0,0,1-.23,9.47,25.11,25.11,0,0,1-3.4,9,24.07,24.07,0,0,1-6.54,6.86,31.82,31.82,0,0,1-8.23,4.07l-2.16.69-2.18.54-1.09.27-1.1.2-2.2.39c-1.48.21-3,.36-4.44,0.56l-4.39.29a22.46,22.46,0,0,1-9.08-1.19,8.48,8.48,0,0,1-3.88-3.15,9.46,9.46,0,0,1-1.39-4.81,17.78,17.78,0,0,1,.46-4.72,37.06,37.06,0,0,1,1.28-4.42,66.93,66.93,0,0,1,3.66-8.25,115.7,115.7,0,0,1,9.46-15.06c3.48-4.77,7.29-9.25,11.17-13.65s8-8.61,12.06-12.78S198.15,45.9,202.51,42,211.3,34.29,216,30.73Z"/><path class="cls-1" d="M56.26,163.86l7.16-2.44c4.56-1.55,11.1-3.66,19-6.15l12.73-4c4.52-1.39,9.32-2.77,14.28-4.19s10.1-2.87,15.33-4.28,10.56-2.83,15.91-4.19,10.7-2.69,16-4c2.65-.63,5.27-1.26,7.87-1.84s5.19-1.08,7.74-1.57c5.11-.9,10.08-1.67,14.83-2.15,2.38-.23,4.68-0.51,6.93-0.67s4.41-.31,6.51-0.36,4.09-.16,6-0.1,3.72,0,5.43.15,3.29,0.17,4.77.38,2.82,0.34,4,.56a37.93,37.93,0,0,1,5.56,1.37l1.91,0.64-0.17.68-2-.11-1.06-.06a9.22,9.22,0,0,0-1.28,0c-0.93,0-2,0-3.17,0-2.38.12-5.24,0.27-8.53,0.65s-7,.84-11,1.44c-2,.26-4.11.66-6.28,1s-4.41.75-6.72,1.14l-14.5,2.63L158,141.07c-5.31.92-10.69,2-16.06,3s-10.73,2.24-16,3.41-10.45,2.36-15.46,3.53L96,154.5l-12.92,3.16c-16,4-26.61,6.86-26.61,6.86Z"/></svg>