<svg id="图层_1" data-name="图层 1" xmlns="http://www.w3.org/2000/svg" viewBox="0 0 280 180"><defs><style>.cls-1{fill:#ff1010;}</style></defs><title>point</title><path class="cls-1" d="M103.32,27.18a50.11,50.11,0,0,1-1,8.69Q102.15,37,101.9,38a9.21,9.21,0,0,1-.33,1.12l-0.37,1-1.5,4-3,8c-1,2.67-1.92,5.33-2.84,8s-1.74,5.35-2.5,8a73.17,73.17,0,0,0-1.85,8,28.59,28.59,0,0,0-.39,3.83,10.08,10.08,0,0,0,.31,3.18,2.56,2.56,0,0,0,.38.82,1,1,0,0,0,.41.31,4.72,4.72,0,0,0,2.51,0,14.29,14.29,0,0,0,1.73-.45c0.6-.2,1.17-0.4,1.86-0.66l4-1.51,8-3c2.66-1,5.32-2.07,8-3.17s5.28-2.19,7.88-3.36,5.2-2.37,7.77-3.61,5.11-2.54,7.65-3.86,5.06-2.66,7.56-4,5-2.8,7.45-4.22l-0.13.08a59.49,59.49,0,0,1,8.83-5.08,34.44,34.44,0,0,1,10.05-3.08c0.46-.06.92-0.1,1.39-0.12L176,48.2l2.5-.09a27.51,27.51,0,0,1,5.46.29,11.7,11.7,0,0,1,5.85,2.79,12.85,12.85,0,0,1,3.38,5.43,25.76,25.76,0,0,1,1.16,5.49c0.1,0.89.17,1.78,0.22,2.66l0.05,1.31v0.73c0,0.17,0,.5,0,0.77a20,20,0,0,1-.44,3c-0.19.93-.45,1.82-0.73,2.69a42.3,42.3,0,0,1-2,5,59,59,0,0,1-5.31,9,54.93,54.93,0,0,1-6.88,7.93,32,32,0,0,1-9.12,6.28,15.37,15.37,0,0,1-6.26,1.31,11,11,0,0,1-3.53-.64,10.86,10.86,0,0,1-3.14-1.78,14.7,14.7,0,0,1-3.83-5.1,25.59,25.59,0,0,1-1.77-5.32,50,50,0,0,1-1.09-10.37l0-2.51c0-.86,0-1.71.05-2.56,0.08-1.7.22-3.39,0.41-5.07a58,58,0,0,1,2-10,33,33,0,0,1,4.22-9.36,18.79,18.79,0,0,1,3.46-3.86,13.94,13.94,0,0,1,4.46-2.5l0.28,0.64a15.35,15.35,0,0,0-6.14,6.92,33.62,33.62,0,0,0-2.67,9,66.19,66.19,0,0,0-.78,9.47c0,1.59,0,3.18.09,4.76,0,0.79.08,1.58,0.14,2.36l0.22,2.4a51.63,51.63,0,0,0,1.62,9.09,19.13,19.13,0,0,0,1.55,3.92,7.91,7.91,0,0,0,2.15,2.61,3.86,3.86,0,0,0,2.45.73,8.65,8.65,0,0,0,3.26-.88,26.9,26.9,0,0,0,6.89-5,55.8,55.8,0,0,0,6-6.88A55.15,55.15,0,0,0,185,75.08,35.34,35.34,0,0,0,186.8,71c0.24-.68.48-1.36,0.64-2a14.07,14.07,0,0,0,.38-1.88,3.18,3.18,0,0,0,0-.46l0-.31V66.17l0.06-.08c0-.11.05,0.11,0.05,0.07v0L187.95,65c0-.76-0.06-1.52-0.11-2.25a19.55,19.55,0,0,0-.69-4.15,7.1,7.1,0,0,0-1.55-3,5.67,5.67,0,0,0-2.85-1.5,22.42,22.42,0,0,0-4.32-.56l-2.42-.1-1.2-.05c-0.35,0-.71,0-1.07,0a30,30,0,0,0-8.92,1.8,51.83,51.83,0,0,0-8.64,3.92l-0.13.08c-2.59,1.25-5.19,2.45-7.75,3.71s-5.16,2.48-7.71,3.77-5.13,2.53-7.68,3.83-5.09,2.62-7.62,4l-15.16,8.14c-2.53,1.35-5.1,2.68-7.68,4l-3.86,1.88A23.22,23.22,0,0,1,94.1,90.2a13,13,0,0,1-2.72.43,8.87,8.87,0,0,1-3.23-.43,7.13,7.13,0,0,1-3.08-2.1,8.64,8.64,0,0,1-1.61-2.94,15.87,15.87,0,0,1-.61-5.3,33.72,33.72,0,0,1,.55-4.69,66.92,66.92,0,0,1,2.27-8.66c0.92-2.79,2-5.51,3.06-8.2S91,53,92.21,50.37s2.46-5.21,3.79-7.75l1.94-3.81c0.32-.65.61-1.23,0.87-1.82s0.57-1.28.84-1.92c1.06-2.6,2.07-5.27,3-8Z"/><path class="cls-1" d="M132,29.93s-0.37,1.65-.92,4.57l-1,5.26c-0.38,2-.74,4.33-1.16,6.84s-0.83,5.23-1.22,8.11-0.85,5.92-1.26,9.06l-1.23,9.7-1.14,10c-0.33,3.37-.64,6.73-0.86,10.06s-0.47,6.59-.8,9.73-0.74,6.18-1.21,9.05-0.87,5.59-1.34,8.09-0.94,4.8-1.35,6.83-0.82,3.81-1.19,5.27c-0.72,2.92-1.25,4.58-1.25,4.58l-0.7,0s-0.28-1.72-.55-4.72c-0.14-1.5-.27-3.32-0.39-5.41s-0.17-4.44-.17-7,0-5.34.18-8.27,0.39-6,.73-9.19,0.95-6.44,1.54-9.74,1.26-6.66,1.83-10l1.85-10c0.66-3.29,1.31-6.53,2-9.65s1.35-6.14,2.07-9,1.39-5.53,2-8,1.26-4.73,1.84-6.73,1.08-3.73,1.52-5.16c0.89-2.84,1.45-4.46,1.45-4.46Z"/><path class="cls-1" d="M37.08,160.7l7.42-3c4.72-1.88,11.5-4.47,19.66-7.55l13.18-4.92C82,143.54,87,141.79,92.12,140c10.28-3.62,21.28-7.39,32.33-11,5.52-1.83,11.07-3.6,16.53-5.35s10.87-3.39,16.15-4.8,10.45-2.59,15.39-3.54q3.7-.73,7.21-1.34c2.34-.38,4.61-0.72,6.79-1,4.36-.6,8.4-1,12-1.15a77,77,0,0,1,9.35,0,34.39,34.39,0,0,1,6,.88c0.68,0.14,1.19.34,1.54,0.44l0.52,0.16-0.15.68-0.53,0c-0.35,0-.85-0.07-1.53,0a47.17,47.17,0,0,0-5.78.41c-2.48.31-5.48,0.81-8.9,1.5s-7.27,1.58-11.46,2.59q-3.14.76-6.52,1.65t-7,1.8c-4.78,1.3-9.83,2.62-15.07,4l-16.2,4.06c-5.53,1.37-11.12,2.89-16.7,4.41-11.16,3.1-22.29,6.35-32.69,9.5L65,152.55l-20.05,6.36-7.6,2.45Z"/></svg>