<svg id="图层_1" data-name="图层 1" xmlns="http://www.w3.org/2000/svg" viewBox="0 0 280 180"><defs><style>.cls-1{fill:#ff1010;}</style></defs><title>point</title><path class="cls-1" d="M134.09,61.51c2.77-6.4,5.41-12.86,7.59-19.41a77.58,77.58,0,0,0,2.66-9.85,23.73,23.73,0,0,0,.45-4.77,8,8,0,0,0-.26-2,1.86,1.86,0,0,0-.62-1,1.76,1.76,0,0,0-1-.24,6.5,6.5,0,0,0-1.85.31,22.55,22.55,0,0,0-4.26,1.88,70.56,70.56,0,0,0-8.4,5.53c-2.7,2-5.46,4.27-8.17,6.38s-5.4,4.33-8,6.54-5.22,4.5-7.76,6.79-5,4.66-7.26,7.12a40.09,40.09,0,0,0-5.93,7.67,12.28,12.28,0,0,0-1.57,3.93,5.23,5.23,0,0,0,.42,3.41,8.59,8.59,0,0,0,2.75,3A22.86,22.86,0,0,0,97,79a79.75,79.75,0,0,0,9.67,3.31c3.38,1,6.72,2.15,10,3.4a88.67,88.67,0,0,1,9.76,4.2c1.59,0.81,3.14,1.71,4.66,2.67a24.93,24.93,0,0,1,4.24,3.48,10.5,10.5,0,0,1,2.81,5,8.5,8.5,0,0,1-.95,5.77c-1.9,3.38-4.85,5.62-7.75,7.68a76.6,76.6,0,0,1-9.22,5.31,59.59,59.59,0,0,1-10,4,23.2,23.2,0,0,1-5.55,1,10.24,10.24,0,0,1-6.14-1.43,7.25,7.25,0,0,1-2.42-2.59,7.8,7.8,0,0,1-.68-1.59,9.49,9.49,0,0,1-.37-1.62,15.9,15.9,0,0,1,.43-6,25.62,25.62,0,0,1,2-5.41,23.82,23.82,0,0,1,3.23-4.87c0.31-.39.69-0.75,1-1.11,0.17-.19.39-0.36,0.58-0.53l0.54-.47c0.72-.6,1.18-1,1.84-1.66L108.58,94l7.59-7.21q7.63-7.2,15.44-14.25c5.22-4.69,10.54-9.29,16.09-13.71,2.78-2.21,5.62-4.37,8.67-6.37,1.54-1,3.08-2,4.81-2.88,0.82-.46,1.78-0.87,2.72-1.29l1.59-.55c0.6-.16,1.29-0.28,1.94-0.39l9.22-1.55-5.92,7.58c-1.49,1.91-3,4-4.44,6s-2.9,4-4.29,6.1a125,125,0,0,0-7.62,12.62,47.38,47.38,0,0,0-2.86,6.45,18.39,18.39,0,0,0-.8,3.1,6.07,6.07,0,0,0,0,2.36,1.13,1.13,0,0,0,.67.86,5.88,5.88,0,0,0,2.36.41,11.38,11.38,0,0,0,1.51-.08l1.87-.24,1.6-.33c0.53-.1,1.11-0.3,1.67-0.44A40.38,40.38,0,0,0,167,87.6a56.87,56.87,0,0,0,6.3-3.58,61.59,61.59,0,0,0,5.86-4.38,64,64,0,0,0,5.34-5,48.06,48.06,0,0,0,4.56-5.71,24.91,24.91,0,0,0,3.26-6.4,13.06,13.06,0,0,0,.43-1.71l0.14-.86c0-.29,0-0.57,0-0.86a8,8,0,0,0-.11-1.7,4.74,4.74,0,0,0-.22-0.81,3.16,3.16,0,0,0-.3-0.79l-0.4-.75a8.2,8.2,0,0,0-.52-0.68,7.11,7.11,0,0,0-1.25-1.22c-0.46-.37-1-0.64-1.52-1l-1.7-.72,0.19-.67L189,51.28a19,19,0,0,1,1.8.85,8.42,8.42,0,0,1,1.63,1.23,8,8,0,0,1,.72.76L193.75,55a4.38,4.38,0,0,1,.47.94,6.39,6.39,0,0,1,.37,1,9.89,9.89,0,0,1,.35,2.06c0,0.34.06,0.7,0.05,1l-0.06,1a15.17,15.17,0,0,1-.29,2,27.55,27.55,0,0,1-2.88,7.43A49.17,49.17,0,0,1,187.37,77a60.86,60.86,0,0,1-5.27,5.81,66.16,66.16,0,0,1-6,5.12,57.62,57.62,0,0,1-6.63,4.35,45.89,45.89,0,0,1-7.36,3.31c-0.66.21-1.27,0.45-2,.63l-2.1.53-1.88.35-0.23,0-0.12,0h-0.06l-0.19,0-0.55.06c-0.36,0-.74.08-1.12,0.09a11.41,11.41,0,0,1-5.07-.78,7.7,7.7,0,0,1-2.62-1.86,7.57,7.57,0,0,1-1.6-2.78,12.06,12.06,0,0,1-.4-5.16,24.8,24.8,0,0,1,.92-4.28,53.93,53.93,0,0,1,3-7.55,130.93,130.93,0,0,1,7.79-13.54q2.1-3.25,4.32-6.41c1.47-2.13,3-4.15,4.62-6.24l3.3,6c-0.21.07-.38,0.08-0.63,0.14l-0.88.3c-0.65.3-1.31,0.55-2,.95-1.37.7-2.78,1.59-4.17,2.49-2.78,1.84-5.54,3.86-8.27,5.92-5.47,4.15-10.79,8.6-16.09,13.07s-10.51,9.09-15.73,13.71l-7.85,6.93c-1.32,1.16-2.65,2.29-4,3.44-0.64.54-1.49,1.25-2.14,1.73l-0.46.36a4.6,4.6,0,0,0-.4.33c-0.26.25-.54,0.47-0.78,0.75a21.25,21.25,0,0,0-4.7,7.93,11.62,11.62,0,0,0-.64,4.3,4,4,0,0,0,1.45,3,6.5,6.5,0,0,0,3.84,1.06,19.82,19.82,0,0,0,4.78-.55,53.3,53.3,0,0,0,9.6-3.32,65.31,65.31,0,0,0,9.09-4.8c2.84-1.82,5.58-4,7.15-6.75a6.35,6.35,0,0,0,.79-4.32,8.19,8.19,0,0,0-2.32-4,28.36,28.36,0,0,0-8.37-5.5,103.2,103.2,0,0,0-19.65-6.31,82.79,82.79,0,0,1-10.37-2.7,27.38,27.38,0,0,1-5.17-2.4,13.22,13.22,0,0,1-4.59-4.37,10.59,10.59,0,0,1-1.38-6.7,17,17,0,0,1,1.88-5.89,45.65,45.65,0,0,1,6.47-9.13,137.77,137.77,0,0,1,15.68-14.51c2.75-2.22,5.5-4.39,8.31-6.52,1.4-1.08,2.8-2.13,4.21-3.15s2.86-2.08,4.32-3.09a75.58,75.58,0,0,1,9.3-5.61,26.53,26.53,0,0,1,5.44-2,11,11,0,0,1,3.32-.3A6.32,6.32,0,0,1,147,20.91a6.48,6.48,0,0,1,1.92,3.44,12.34,12.34,0,0,1,.25,3.17,27.09,27.09,0,0,1-.94,5.58,70.14,70.14,0,0,1-3.63,10.1,149.36,149.36,0,0,1-9.86,18.63Z"/><path class="cls-1" d="M37.11,146.8l8.76-2.57c5.58-1.63,13.57-3.85,23.18-6.49l15.53-4.19c5.51-1.48,11.35-2.95,17.39-4.47,12.08-3,25-6.18,38-9.14,6.48-1.5,13-2.94,19.37-4.37s12.71-2.74,18.86-3.83c3.08-.51,6.1-1.06,9.09-1.45l4.42-.63,4.33-.52c5.69-.7,11.1-1.22,16.11-1.53,1.25-.08,2.47-0.19,3.67-0.24l3.52-.13c2.28-.09,4.46-0.17,6.51-0.13,4.08,0,7.66.14,10.59,0.36l3.91,0.37c1.13,0.13,2.1.31,2.87,0.44l2.37,0.41-0.07.7-2.39.12c-0.78.05-1.73,0.06-2.85,0.14l-3.84.33c-1.43.08-3,.33-4.75,0.51-0.86.1-1.76,0.18-2.69,0.3l-2.89.4q-1.49.21-3.08,0.41l-3.26.49q-3.34.5-7,1.09c-2.44.38-5,.79-7.61,1.27s-5.35.88-8.14,1.39l-17.58,3.09L160.53,122c-6.43,1-12.95,2.23-19.46,3.41-13,2.44-26,5.06-38.18,7.62l-17.53,3.73-15.7,3.39-23.47,5.27-8.89,2Z"/></svg>